{"cells":[{"cell_type":"code","execution_count":1,"metadata":{"id":"kpAziAhwhRK-","colab":{"base_uri":"https://localhost:8080/"},"executionInfo":{"status":"ok","timestamp":1699785871726,"user_tz":-540,"elapsed":2315,"user":{"displayName":"笠井勇希","userId":"14292053087326487251"}},"outputId":"e6ddb0bc-6b4a-4d65-c688-901f18aa4113"},"outputs":[{"output_type":"stream","name":"stdout","text":["Cloning into 'ConvertMovieStyle'...\n","remote: Enumerating objects: 18, done.\u001b[K\n","remote: Counting objects: 100% (18/18), done.\u001b[K\n","remote: Compressing objects: 100% (17/17), done.\u001b[K\n","remote: Total 18 (delta 3), reused 0 (delta 0), pack-reused 0\u001b[K\n","Receiving objects: 100% (18/18), 17.87 MiB | 20.04 MiB/s, done.\n","Resolving deltas: 100% (3/3), done.\n"]}],"source":["\"\"\"\n","  GitHubよりサンプルをダウンロード\n","\"\"\"\n","!git clone https://github.com/caribou68/ConvertMovieStyle.git\n","!mkdir ConvertMovieStyle/converted_images ConvertMovieStyle/diveded_images ConvertMovieStyle/out"]},{"cell_type":"markdown","metadata":{"id":"hVOHzrY-tRab"},"source":["#動画分解"]},{"cell_type":"code","execution_count":2,"metadata":{"id":"38I4uWTUxIvL","colab":{"base_uri":"https://localhost:8080/"},"executionInfo":{"status":"ok","timestamp":1699785884323,"user_tz":-540,"elapsed":12604,"user":{"displayName":"笠井勇希","userId":"14292053087326487251"}},"outputId":"d54d52cb-c1b6-4c59-d0c3-3320c1b232c3"},"outputs":[{"output_type":"stream","name":"stdout","text":["Collecting ffmpeg-python\n","  Downloading ffmpeg_python-0.2.0-py3-none-any.whl (25 kB)\n","Requirement already satisfied: future in /usr/local/lib/python3.10/dist-packages (from ffmpeg-python) (0.18.3)\n","Installing collected packages: ffmpeg-python\n","Successfully installed ffmpeg-python-0.2.0\n"]}],"source":["!pip install ffmpeg-python\n","import ffmpeg"]},{"cell_type":"code","execution_count":3,"metadata":{"id":"2FWpZsyCr23C","colab":{"base_uri":"https://localhost:8080/"},"executionInfo":{"status":"ok","timestamp":1699785933346,"user_tz":-540,"elapsed":49033,"user":{"displayName":"笠井勇希","userId":"14292053087326487251"}},"outputId":"cb29a153-08d5-4884-c96e-d08a5c5a0d16"},"outputs":[{"output_type":"stream","name":"stdout","text":["ffmpeg version 4.4.2-0ubuntu0.22.04.1 Copyright (c) 2000-2021 the FFmpeg developers\n","  built with gcc 11 (Ubuntu 11.2.0-19ubuntu1)\n","  configuration: --prefix=/usr --extra-version=0ubuntu0.22.04.1 --toolchain=hardened --libdir=/usr/lib/x86_64-linux-gnu --incdir=/usr/include/x86_64-linux-gnu --arch=amd64 --enable-gpl --disable-stripping --enable-gnutls --enable-ladspa --enable-libaom --enable-libass --enable-libbluray --enable-libbs2b --enable-libcaca --enable-libcdio --enable-libcodec2 --enable-libdav1d --enable-libflite --enable-libfontconfig --enable-libfreetype --enable-libfribidi --enable-libgme --enable-libgsm --enable-libjack --enable-libmp3lame --enable-libmysofa --enable-libopenjpeg --enable-libopenmpt --enable-libopus --enable-libpulse --enable-librabbitmq --enable-librubberband --enable-libshine --enable-libsnappy --enable-libsoxr --enable-libspeex --enable-libsrt --enable-libssh --enable-libtheora --enable-libtwolame --enable-libvidstab --enable-libvorbis --enable-libvpx --enable-libwebp --enable-libx265 --enable-libxml2 --enable-libxvid --enable-libzimg --enable-libzmq --enable-libzvbi --enable-lv2 --enable-omx --enable-openal --enable-opencl --enable-opengl --enable-sdl2 --enable-pocketsphinx --enable-librsvg --enable-libmfx --enable-libdc1394 --enable-libdrm --enable-libiec61883 --enable-chromaprint --enable-frei0r --enable-libx264 --enable-shared\n","  libavutil      56. 70.100 / 56. 70.100\n","  libavcodec     58.134.100 / 58.134.100\n","  libavformat    58. 76.100 / 58. 76.100\n","  libavdevice    58. 13.100 / 58. 13.100\n","  libavfilter     7.110.100 /  7.110.100\n","  libswscale      5.  9.100 /  5.  9.100\n","  libswresample   3.  9.100 /  3.  9.100\n","  libpostproc    55.  9.100 / 55.  9.100\n","Input #0, mov,mp4,m4a,3gp,3g2,mj2, from '//content/ConvertMovieStyle/content_movie/sample.mp4':\n","  Metadata:\n","    major_brand     : mp42\n","    minor_version   : 0\n","    compatible_brands: mp41isom\n","    creation_time   : 2023-11-12T05:07:54.000000Z\n","  Duration: 00:00:15.00, start: 0.000000, bitrate: 4179 kb/s\n","  Stream #0:0(und): Video: h264 (High) (avc1 / 0x31637661), yuv420p, 640x480 [SAR 1:1 DAR 4:3], 4044 kb/s, 60 fps, 60 tbr, 60k tbn, 120 tbc (default)\n","    Metadata:\n","      creation_time   : 2023-11-12T05:07:54.000000Z\n","      handler_name    : VideoHandler\n","      vendor_id       : [0][0][0][0]\n","      encoder         : AVC Coding\n","  Stream #0:1(und): Audio: aac (LC) (mp4a / 0x6134706D), 44100 Hz, stereo, fltp, 127 kb/s (default)\n","    Metadata:\n","      creation_time   : 2023-11-12T05:07:54.000000Z\n","      handler_name    : SoundHandler\n","      vendor_id       : [0][0][0][0]\n","Stream mapping:\n","  Stream #0:0 -> #0:0 (h264 (native) -> png (native))\n","Press [q] to stop, [?] for help\n","Output #0, image2, to '//content/ConvertMovieStyle/diveded_images/%06d.png':\n","  Metadata:\n","    major_brand     : mp42\n","    minor_version   : 0\n","    compatible_brands: mp41isom\n","    encoder         : Lavf58.76.100\n","  Stream #0:0(und): Video: png, rgb24(pc, gbr/unknown/unknown, progressive), 640x480 [SAR 1:1 DAR 4:3], q=2-31, 200 kb/s, 60 fps, 60 tbn (default)\n","    Metadata:\n","      creation_time   : 2023-11-12T05:07:54.000000Z\n","      handler_name    : VideoHandler\n","      vendor_id       : [0][0][0][0]\n","      encoder         : Lavc58.134.100 png\n","frame=2\n","fps=0.00\n","stream_0_0_q=0.0\n","bitrate=N/A\n","total_size=N/A\n","out_time_us=0\n","out_time_ms=0\n","out_time=00:00:00.000000\n","dup_frames=1\n","drop_frames=0\n","speed=   0x\n","progress=continue\n","frame=10\n","fps=0.00\n","stream_0_0_q=-0.0\n","bitrate=N/A\n","total_size=N/A\n","out_time_us=133333\n","out_time_ms=133333\n","out_time=00:00:00.133333\n","dup_frames=1\n","drop_frames=0\n","speed=0.238x\n","progress=continue\n","frame=18\n","fps=16.74\n","stream_0_0_q=-0.0\n","bitrate=N/A\n","total_size=N/A\n","out_time_us=266667\n","out_time_ms=266667\n","out_time=00:00:00.266667\n","dup_frames=1\n","drop_frames=0\n","speed=0.248x\n","progress=continue\n","frame=27\n","fps=16.87\n","stream_0_0_q=-0.0\n","bitrate=N/A\n","total_size=N/A\n","out_time_us=416667\n","out_time_ms=416667\n","out_time=00:00:00.416667\n","dup_frames=1\n","drop_frames=0\n","speed=0.26x\n","progress=continue\n","frame=33\n","fps=15.69\n","stream_0_0_q=-0.0\n","bitrate=N/A\n","total_size=N/A\n","out_time_us=516667\n","out_time_ms=516667\n","out_time=00:00:00.516667\n","dup_frames=1\n","drop_frames=0\n","speed=0.246x\n","progress=continue\n","frame=40\n","fps=15.06\n","stream_0_0_q=-0.0\n","bitrate=N/A\n","total_size=N/A\n","out_time_us=633333\n","out_time_ms=633333\n","out_time=00:00:00.633333\n","dup_frames=1\n","drop_frames=0\n","speed=0.238x\n","progress=continue\n","frame=51\n","fps=16.13\n","stream_0_0_q=-0.0\n","bitrate=N/A\n","total_size=N/A\n","out_time_us=816667\n","out_time_ms=816667\n","out_time=00:00:00.816667\n","dup_frames=1\n","drop_frames=0\n","speed=0.258x\n","progress=continue\n","frame=59\n","fps=15.94\n","stream_0_0_q=-0.0\n","bitrate=N/A\n","total_size=N/A\n","out_time_us=950000\n","out_time_ms=950000\n","out_time=00:00:00.950000\n","dup_frames=1\n","drop_frames=0\n","speed=0.257x\n","progress=continue\n","frame=65\n","fps=15.33\n","stream_0_0_q=-0.0\n","bitrate=N/A\n","total_size=N/A\n","out_time_us=1050000\n","out_time_ms=1050000\n","out_time=00:00:01.050000\n","dup_frames=1\n","drop_frames=0\n","speed=0.248x\n","progress=continue\n","frame=70\n","fps=14.69\n","stream_0_0_q=-0.0\n","bitrate=N/A\n","total_size=N/A\n","out_time_us=1133333\n","out_time_ms=1133333\n","out_time=00:00:01.133333\n","dup_frames=1\n","drop_frames=0\n","speed=0.238x\n","progress=continue\n","frame=77\n","fps=14.32\n","stream_0_0_q=-0.0\n","bitrate=N/A\n","total_size=N/A\n","out_time_us=1250000\n","out_time_ms=1250000\n","out_time=00:00:01.250000\n","dup_frames=1\n","drop_frames=0\n","speed=0.232x\n","progress=continue\n","frame=86\n","fps=14.56\n","stream_0_0_q=-0.0\n","bitrate=N/A\n","total_size=N/A\n","out_time_us=1400000\n","out_time_ms=1400000\n","out_time=00:00:01.400000\n","dup_frames=1\n","drop_frames=0\n","speed=0.237x\n","progress=continue\n","frame=96\n","fps=14.96\n","stream_0_0_q=-0.0\n","bitrate=N/A\n","total_size=N/A\n","out_time_us=1566667\n","out_time_ms=1566667\n","out_time=00:00:01.566667\n","dup_frames=1\n","drop_frames=0\n","speed=0.244x\n","progress=continue\n","frame=107\n","fps=15.29\n","stream_0_0_q=-0.0\n","bitrate=N/A\n","total_size=N/A\n","out_time_us=1750000\n","out_time_ms=1750000\n","out_time=00:00:01.750000\n","dup_frames=1\n","drop_frames=0\n","speed=0.25x\n","progress=continue\n","frame=113\n","fps=14.85\n","stream_0_0_q=-0.0\n","bitrate=N/A\n","total_size=N/A\n","out_time_us=1850000\n","out_time_ms=1850000\n","out_time=00:00:01.850000\n","dup_frames=1\n","drop_frames=0\n","speed=0.243x\n","progress=continue\n","frame=119\n","fps=14.51\n","stream_0_0_q=-0.0\n","bitrate=N/A\n","total_size=N/A\n","out_time_us=1950000\n","out_time_ms=1950000\n","out_time=00:00:01.950000\n","dup_frames=1\n","drop_frames=0\n","speed=0.238x\n","progress=continue\n","frame=126\n","fps=14.42\n","stream_0_0_q=-0.0\n","bitrate=N/A\n","total_size=N/A\n","out_time_us=2066667\n","out_time_ms=2066667\n","out_time=00:00:02.066667\n","dup_frames=1\n","drop_frames=0\n","speed=0.236x\n","progress=continue\n","frame=135\n","fps=14.57\n","stream_0_0_q=-0.0\n","bitrate=N/A\n","total_size=N/A\n","out_time_us=2216667\n","out_time_ms=2216667\n","out_time=00:00:02.216667\n","dup_frames=1\n","drop_frames=0\n","speed=0.239x\n","progress=continue\n","frame=147\n","fps=14.95\n","stream_0_0_q=-0.0\n","bitrate=N/A\n","total_size=N/A\n","out_time_us=2416667\n","out_time_ms=2416667\n","out_time=00:00:02.416667\n","dup_frames=1\n","drop_frames=0\n","speed=0.246x\n","progress=continue\n","frame=158\n","fps=15.27\n","stream_0_0_q=-0.0\n","bitrate=N/A\n","total_size=N/A\n","out_time_us=2600000\n","out_time_ms=2600000\n","out_time=00:00:02.600000\n","dup_frames=1\n","drop_frames=0\n","speed=0.251x\n","progress=continue\n","frame=171\n","fps=15.66\n","stream_0_0_q=-0.0\n","bitrate=N/A\n","total_size=N/A\n","out_time_us=2816667\n","out_time_ms=2816667\n","out_time=00:00:02.816667\n","dup_frames=1\n","drop_frames=0\n","speed=0.258x\n","progress=continue\n","frame=183\n","fps=15.92\n","stream_0_0_q=-0.0\n","bitrate=N/A\n","total_size=N/A\n","out_time_us=3016667\n","out_time_ms=3016667\n","out_time=00:00:03.016667\n","dup_frames=1\n","drop_frames=0\n","speed=0.262x\n","progress=continue\n","frame=195\n","fps=16.19\n","stream_0_0_q=-0.0\n","bitrate=N/A\n","total_size=N/A\n","out_time_us=3216667\n","out_time_ms=3216667\n","out_time=00:00:03.216667\n","dup_frames=1\n","drop_frames=0\n","speed=0.267x\n","progress=continue\n","frame=205\n","fps=16.32\n","stream_0_0_q=-0.0\n","bitrate=N/A\n","total_size=N/A\n","out_time_us=3383333\n","out_time_ms=3383333\n","out_time=00:00:03.383333\n","dup_frames=1\n","drop_frames=0\n","speed=0.269x\n","progress=continue\n","frame=216\n","fps=16.49\n","stream_0_0_q=-0.0\n","bitrate=N/A\n","total_size=N/A\n","out_time_us=3566667\n","out_time_ms=3566667\n","out_time=00:00:03.566667\n","dup_frames=1\n","drop_frames=0\n","speed=0.272x\n","progress=continue\n","frame=227\n","fps=16.69\n","stream_0_0_q=-0.0\n","bitrate=N/A\n","total_size=N/A\n","out_time_us=3750000\n","out_time_ms=3750000\n","out_time=00:00:03.750000\n","dup_frames=1\n","drop_frames=0\n","speed=0.276x\n","progress=continue\n","frame=237\n","fps=16.80\n","stream_0_0_q=-0.0\n","bitrate=N/A\n","total_size=N/A\n","out_time_us=3916667\n","out_time_ms=3916667\n","out_time=00:00:03.916667\n","dup_frames=1\n","drop_frames=0\n","speed=0.278x\n","progress=continue\n","frame=248\n","fps=16.91\n","stream_0_0_q=-0.0\n","bitrate=N/A\n","total_size=N/A\n","out_time_us=4100000\n","out_time_ms=4100000\n","out_time=00:00:04.100000\n","dup_frames=1\n","drop_frames=0\n","speed=0.279x\n","progress=continue\n","frame=256\n","fps=16.85\n","stream_0_0_q=-0.0\n","bitrate=N/A\n","total_size=N/A\n","out_time_us=4233333\n","out_time_ms=4233333\n","out_time=00:00:04.233333\n","dup_frames=1\n","drop_frames=0\n","speed=0.279x\n","progress=continue\n","frame=263\n","fps=16.72\n","stream_0_0_q=-0.0\n","bitrate=N/A\n","total_size=N/A\n","out_time_us=4350000\n","out_time_ms=4350000\n","out_time=00:00:04.350000\n","dup_frames=1\n","drop_frames=0\n","speed=0.277x\n","progress=continue\n","frame=270\n","fps=16.50\n","stream_0_0_q=-0.0\n","bitrate=N/A\n","total_size=N/A\n","out_time_us=4466667\n","out_time_ms=4466667\n","out_time=00:00:04.466667\n","dup_frames=1\n","drop_frames=0\n","speed=0.273x\n","progress=continue\n","frame=277\n","fps=16.36\n","stream_0_0_q=-0.0\n","bitrate=N/A\n","total_size=N/A\n","out_time_us=4583333\n","out_time_ms=4583333\n","out_time=00:00:04.583333\n","dup_frames=1\n","drop_frames=0\n","speed=0.271x\n","progress=continue\n","frame=282\n","fps=16.16\n","stream_0_0_q=-0.0\n","bitrate=N/A\n","total_size=N/A\n","out_time_us=4666667\n","out_time_ms=4666667\n","out_time=00:00:04.666667\n","dup_frames=1\n","drop_frames=0\n","speed=0.268x\n","progress=continue\n","frame=287\n","fps=15.96\n","stream_0_0_q=-0.0\n","bitrate=N/A\n","total_size=N/A\n","out_time_us=4750000\n","out_time_ms=4750000\n","out_time=00:00:04.750000\n","dup_frames=1\n","drop_frames=0\n","speed=0.264x\n","progress=continue\n","frame=292\n","fps=15.73\n","stream_0_0_q=-0.0\n","bitrate=N/A\n","total_size=N/A\n","out_time_us=4833333\n","out_time_ms=4833333\n","out_time=00:00:04.833333\n","dup_frames=1\n","drop_frames=0\n","speed=0.26x\n","progress=continue\n","frame=297\n","fps=15.47\n","stream_0_0_q=-0.0\n","bitrate=N/A\n","total_size=N/A\n","out_time_us=4916667\n","out_time_ms=4916667\n","out_time=00:00:04.916667\n","dup_frames=1\n","drop_frames=0\n","speed=0.256x\n","progress=continue\n","frame=302\n","fps=15.26\n","stream_0_0_q=-0.0\n","bitrate=N/A\n","total_size=N/A\n","out_time_us=5000000\n","out_time_ms=5000000\n","out_time=00:00:05.000000\n","dup_frames=1\n","drop_frames=0\n","speed=0.253x\n","progress=continue\n","frame=308\n","fps=15.08\n","stream_0_0_q=-0.0\n","bitrate=N/A\n","total_size=N/A\n","out_time_us=5100000\n","out_time_ms=5100000\n","out_time=00:00:05.100000\n","dup_frames=1\n","drop_frames=0\n","speed=0.25x\n","progress=continue\n","frame=314\n","fps=14.96\n","stream_0_0_q=-0.0\n","bitrate=N/A\n","total_size=N/A\n","out_time_us=5200000\n","out_time_ms=5200000\n","out_time=00:00:05.200000\n","dup_frames=1\n","drop_frames=0\n","speed=0.248x\n","progress=continue\n","frame=322\n","fps=14.95\n","stream_0_0_q=-0.0\n","bitrate=N/A\n","total_size=N/A\n","out_time_us=5333333\n","out_time_ms=5333333\n","out_time=00:00:05.333333\n","dup_frames=1\n","drop_frames=0\n","speed=0.248x\n","progress=continue\n","frame=329\n","fps=14.88\n","stream_0_0_q=-0.0\n","bitrate=N/A\n","total_size=N/A\n","out_time_us=5450000\n","out_time_ms=5450000\n","out_time=00:00:05.450000\n","dup_frames=1\n","drop_frames=0\n","speed=0.247x\n","progress=continue\n","frame=337\n","fps=14.91\n","stream_0_0_q=-0.0\n","bitrate=N/A\n","total_size=N/A\n","out_time_us=5583333\n","out_time_ms=5583333\n","out_time=00:00:05.583333\n","dup_frames=1\n","drop_frames=0\n","speed=0.247x\n","progress=continue\n","frame=347\n","fps=15.01\n","stream_0_0_q=-0.0\n","bitrate=N/A\n","total_size=N/A\n","out_time_us=5750000\n","out_time_ms=5750000\n","out_time=00:00:05.750000\n","dup_frames=1\n","drop_frames=0\n","speed=0.249x\n","progress=continue\n","frame=358\n","fps=15.09\n","stream_0_0_q=-0.0\n","bitrate=N/A\n","total_size=N/A\n","out_time_us=5933333\n","out_time_ms=5933333\n","out_time=00:00:05.933333\n","dup_frames=1\n","drop_frames=0\n","speed=0.25x\n","progress=continue\n","frame=369\n","fps=15.20\n","stream_0_0_q=-0.0\n","bitrate=N/A\n","total_size=N/A\n","out_time_us=6116667\n","out_time_ms=6116667\n","out_time=00:00:06.116667\n","dup_frames=1\n","drop_frames=0\n","speed=0.252x\n","progress=continue\n","frame=380\n","fps=15.28\n","stream_0_0_q=-0.0\n","bitrate=N/A\n","total_size=N/A\n","out_time_us=6300000\n","out_time_ms=6300000\n","out_time=00:00:06.300000\n","dup_frames=1\n","drop_frames=0\n","speed=0.253x\n","progress=continue\n","frame=390\n","fps=15.35\n","stream_0_0_q=-0.0\n","bitrate=N/A\n","total_size=N/A\n","out_time_us=6466667\n","out_time_ms=6466667\n","out_time=00:00:06.466667\n","dup_frames=1\n","drop_frames=0\n","speed=0.255x\n","progress=continue\n","frame=402\n","fps=15.50\n","stream_0_0_q=-0.0\n","bitrate=N/A\n","total_size=N/A\n","out_time_us=6666667\n","out_time_ms=6666667\n","out_time=00:00:06.666667\n","dup_frames=1\n","drop_frames=0\n","speed=0.257x\n","progress=continue\n","frame=413\n","fps=15.58\n","stream_0_0_q=-0.0\n","bitrate=N/A\n","total_size=N/A\n","out_time_us=6850000\n","out_time_ms=6850000\n","out_time=00:00:06.850000\n","dup_frames=1\n","drop_frames=0\n","speed=0.258x\n","progress=continue\n","frame=424\n","fps=15.67\n","stream_0_0_q=-0.0\n","bitrate=N/A\n","total_size=N/A\n","out_time_us=7033333\n","out_time_ms=7033333\n","out_time=00:00:07.033333\n","dup_frames=1\n","drop_frames=0\n","speed=0.26x\n","progress=continue\n","frame=434\n","fps=15.74\n","stream_0_0_q=-0.0\n","bitrate=N/A\n","total_size=N/A\n","out_time_us=7200000\n","out_time_ms=7200000\n","out_time=00:00:07.200000\n","dup_frames=1\n","drop_frames=0\n","speed=0.261x\n","progress=continue\n","frame=442\n","fps=15.74\n","stream_0_0_q=-0.0\n","bitrate=N/A\n","total_size=N/A\n","out_time_us=7333333\n","out_time_ms=7333333\n","out_time=00:00:07.333333\n","dup_frames=1\n","drop_frames=0\n","speed=0.261x\n","progress=continue\n","frame=453\n","fps=15.85\n","stream_0_0_q=-0.0\n","bitrate=N/A\n","total_size=N/A\n","out_time_us=7516667\n","out_time_ms=7516667\n","out_time=00:00:07.516667\n","dup_frames=1\n","drop_frames=0\n","speed=0.263x\n","progress=continue\n","frame=465\n","fps=15.93\n","stream_0_0_q=-0.0\n","bitrate=N/A\n","total_size=N/A\n","out_time_us=7716667\n","out_time_ms=7716667\n","out_time=00:00:07.716667\n","dup_frames=1\n","drop_frames=0\n","speed=0.264x\n","progress=continue\n","frame=474\n","fps=15.96\n","stream_0_0_q=-0.0\n","bitrate=N/A\n","total_size=N/A\n","out_time_us=7866667\n","out_time_ms=7866667\n","out_time=00:00:07.866667\n","dup_frames=1\n","drop_frames=0\n","speed=0.265x\n","progress=continue\n","frame=485\n","fps=16.03\n","stream_0_0_q=-0.0\n","bitrate=N/A\n","total_size=N/A\n","out_time_us=8050000\n","out_time_ms=8050000\n","out_time=00:00:08.050000\n","dup_frames=1\n","drop_frames=0\n","speed=0.266x\n","progress=continue\n","frame=496\n","fps=16.11\n","stream_0_0_q=-0.0\n","bitrate=N/A\n","total_size=N/A\n","out_time_us=8233333\n","out_time_ms=8233333\n","out_time=00:00:08.233333\n","dup_frames=1\n","drop_frames=0\n","speed=0.267x\n","progress=continue\n","frame=504\n","fps=16.03\n","stream_0_0_q=-0.0\n","bitrate=N/A\n","total_size=N/A\n","out_time_us=8366667\n","out_time_ms=8366667\n","out_time=00:00:08.366667\n","dup_frames=1\n","drop_frames=0\n","speed=0.266x\n","progress=continue\n","frame=511\n","fps=15.99\n","stream_0_0_q=-0.0\n","bitrate=N/A\n","total_size=N/A\n","out_time_us=8483333\n","out_time_ms=8483333\n","out_time=00:00:08.483333\n","dup_frames=1\n","drop_frames=0\n","speed=0.265x\n","progress=continue\n","frame=516\n","fps=15.90\n","stream_0_0_q=-0.0\n","bitrate=N/A\n","total_size=N/A\n","out_time_us=8566667\n","out_time_ms=8566667\n","out_time=00:00:08.566667\n","dup_frames=1\n","drop_frames=0\n","speed=0.264x\n","progress=continue\n","frame=521\n","fps=15.77\n","stream_0_0_q=-0.0\n","bitrate=N/A\n","total_size=N/A\n","out_time_us=8650000\n","out_time_ms=8650000\n","out_time=00:00:08.650000\n","dup_frames=1\n","drop_frames=0\n","speed=0.262x\n","progress=continue\n","frame=529\n","fps=15.67\n","stream_0_0_q=-0.0\n","bitrate=N/A\n","total_size=N/A\n","out_time_us=8783333\n","out_time_ms=8783333\n","out_time=00:00:08.783333\n","dup_frames=1\n","drop_frames=0\n","speed=0.26x\n","progress=continue\n","frame=535\n","fps=15.61\n","stream_0_0_q=-0.0\n","bitrate=N/A\n","total_size=N/A\n","out_time_us=8883333\n","out_time_ms=8883333\n","out_time=00:00:08.883333\n","dup_frames=1\n","drop_frames=0\n","speed=0.259x\n","progress=continue\n","frame=540\n","fps=15.50\n","stream_0_0_q=-0.0\n","bitrate=N/A\n","total_size=N/A\n","out_time_us=8966667\n","out_time_ms=8966667\n","out_time=00:00:08.966667\n","dup_frames=1\n","drop_frames=0\n","speed=0.257x\n","progress=continue\n","frame=546\n","fps=15.43\n","stream_0_0_q=-0.0\n","bitrate=N/A\n","total_size=N/A\n","out_time_us=9066667\n","out_time_ms=9066667\n","out_time=00:00:09.066667\n","dup_frames=1\n","drop_frames=0\n","speed=0.256x\n","progress=continue\n","frame=552\n","fps=15.38\n","stream_0_0_q=-0.0\n","bitrate=N/A\n","total_size=N/A\n","out_time_us=9166667\n","out_time_ms=9166667\n","out_time=00:00:09.166667\n","dup_frames=1\n","drop_frames=0\n","speed=0.255x\n","progress=continue\n","frame=559\n","fps=15.33\n","stream_0_0_q=-0.0\n","bitrate=N/A\n","total_size=N/A\n","out_time_us=9283333\n","out_time_ms=9283333\n","out_time=00:00:09.283333\n","dup_frames=1\n","drop_frames=0\n","speed=0.255x\n","progress=continue\n","frame=566\n","fps=15.30\n","stream_0_0_q=-0.0\n","bitrate=N/A\n","total_size=N/A\n","out_time_us=9400000\n","out_time_ms=9400000\n","out_time=00:00:09.400000\n","dup_frames=1\n","drop_frames=0\n","speed=0.254x\n","progress=continue\n","frame=579\n","fps=15.44\n","stream_0_0_q=-0.0\n","bitrate=N/A\n","total_size=N/A\n","out_time_us=9616667\n","out_time_ms=9616667\n","out_time=00:00:09.616667\n","dup_frames=1\n","drop_frames=0\n","speed=0.256x\n","progress=continue\n","frame=597\n","fps=15.69\n","stream_0_0_q=-0.0\n","bitrate=N/A\n","total_size=N/A\n","out_time_us=9916667\n","out_time_ms=9916667\n","out_time=00:00:09.916667\n","dup_frames=1\n","drop_frames=0\n","speed=0.261x\n","progress=continue\n","frame=615\n","fps=15.94\n","stream_0_0_q=-0.0\n","bitrate=N/A\n","total_size=N/A\n","out_time_us=10216667\n","out_time_ms=10216667\n","out_time=00:00:10.216667\n","dup_frames=1\n","drop_frames=0\n","speed=0.265x\n","progress=continue\n","frame=632\n","fps=16.16\n","stream_0_0_q=-0.0\n","bitrate=N/A\n","total_size=N/A\n","out_time_us=10500000\n","out_time_ms=10500000\n","out_time=00:00:10.500000\n","dup_frames=1\n","drop_frames=0\n","speed=0.268x\n","progress=continue\n","frame=650\n","fps=16.39\n","stream_0_0_q=-0.0\n","bitrate=N/A\n","total_size=N/A\n","out_time_us=10800000\n","out_time_ms=10800000\n","out_time=00:00:10.800000\n","dup_frames=1\n","drop_frames=0\n","speed=0.272x\n","progress=continue\n","frame=668\n","fps=16.63\n","stream_0_0_q=-0.0\n","bitrate=N/A\n","total_size=N/A\n","out_time_us=11100000\n","out_time_ms=11100000\n","out_time=00:00:11.100000\n","dup_frames=1\n","drop_frames=0\n","speed=0.276x\n","progress=continue\n","frame=685\n","fps=16.84\n","stream_0_0_q=-0.0\n","bitrate=N/A\n","total_size=N/A\n","out_time_us=11383333\n","out_time_ms=11383333\n","out_time=00:00:11.383333\n","dup_frames=1\n","drop_frames=0\n","speed=0.28x\n","progress=continue\n","frame=703\n","fps=17.07\n","stream_0_0_q=-0.0\n","bitrate=N/A\n","total_size=N/A\n","out_time_us=11683333\n","out_time_ms=11683333\n","out_time=00:00:11.683333\n","dup_frames=1\n","drop_frames=0\n","speed=0.284x\n","progress=continue\n","frame=721\n","fps=17.28\n","stream_0_0_q=-0.0\n","bitrate=N/A\n","total_size=N/A\n","out_time_us=11983333\n","out_time_ms=11983333\n","out_time=00:00:11.983333\n","dup_frames=1\n","drop_frames=0\n","speed=0.287x\n","progress=continue\n","frame=738\n","fps=17.45\n","stream_0_0_q=-0.0\n","bitrate=N/A\n","total_size=N/A\n","out_time_us=12266667\n","out_time_ms=12266667\n","out_time=00:00:12.266667\n","dup_frames=1\n","drop_frames=0\n","speed=0.29x\n","progress=continue\n","frame=756\n","fps=17.66\n","stream_0_0_q=-0.0\n","bitrate=N/A\n","total_size=N/A\n","out_time_us=12566667\n","out_time_ms=12566667\n","out_time=00:00:12.566667\n","dup_frames=1\n","drop_frames=0\n","speed=0.294x\n","progress=continue\n","frame=774\n","fps=17.86\n","stream_0_0_q=-0.0\n","bitrate=N/A\n","total_size=N/A\n","out_time_us=12866667\n","out_time_ms=12866667\n","out_time=00:00:12.866667\n","dup_frames=1\n","drop_frames=0\n","speed=0.297x\n","progress=continue\n","frame=790\n","fps=18.02\n","stream_0_0_q=-0.0\n","bitrate=N/A\n","total_size=N/A\n","out_time_us=13133333\n","out_time_ms=13133333\n","out_time=00:00:13.133333\n","dup_frames=1\n","drop_frames=0\n","speed= 0.3x\n","progress=continue\n","frame=808\n","fps=18.22\n","stream_0_0_q=-0.0\n","bitrate=N/A\n","total_size=N/A\n","out_time_us=13433333\n","out_time_ms=13433333\n","out_time=00:00:13.433333\n","dup_frames=1\n","drop_frames=0\n","speed=0.303x\n","progress=continue\n","frame=825\n","fps=18.39\n","stream_0_0_q=-0.0\n","bitrate=N/A\n","total_size=N/A\n","out_time_us=13716667\n","out_time_ms=13716667\n","out_time=00:00:13.716667\n","dup_frames=1\n","drop_frames=0\n","speed=0.306x\n","progress=continue\n","frame=842\n","fps=18.56\n","stream_0_0_q=-0.0\n","bitrate=N/A\n","total_size=N/A\n","out_time_us=14000000\n","out_time_ms=14000000\n","out_time=00:00:14.000000\n","dup_frames=1\n","drop_frames=0\n","speed=0.309x\n","progress=continue\n","frame=859\n","fps=18.73\n","stream_0_0_q=-0.0\n","bitrate=N/A\n","total_size=N/A\n","out_time_us=14283333\n","out_time_ms=14283333\n","out_time=00:00:14.283333\n","dup_frames=1\n","drop_frames=0\n","speed=0.311x\n","progress=continue\n","frame=875\n","fps=18.85\n","stream_0_0_q=-0.0\n","bitrate=N/A\n","total_size=N/A\n","out_time_us=14550000\n","out_time_ms=14550000\n","out_time=00:00:14.550000\n","dup_frames=1\n","drop_frames=0\n","speed=0.313x\n","progress=continue\n","frame=886\n","fps=18.87\n","stream_0_0_q=-0.0\n","bitrate=N/A\n","total_size=N/A\n","out_time_us=14733333\n","out_time_ms=14733333\n","out_time=00:00:14.733333\n","dup_frames=1\n","drop_frames=0\n","speed=0.314x\n","progress=continue\n","frame=897\n","fps=18.87\n","stream_0_0_q=-0.0\n","bitrate=N/A\n","total_size=N/A\n","out_time_us=14916667\n","out_time_ms=14916667\n","out_time=00:00:14.916667\n","dup_frames=1\n","drop_frames=0\n","speed=0.314x\n","progress=continue\n","frame=  901 fps= 19 q=-0.0 Lsize=N/A time=00:00:15.01 bitrate=N/A dup=1 drop=0 speed=0.313x    \n","frame=901\n","fps=18.79\n","stream_0_0_q=-0.0\n","bitrate=N/A\n","total_size=N/A\n","out_time_us=15016667\n","out_time_ms=15016667\n","out_time=00:00:15.016667\n","dup_frames=1\n","drop_frames=0\n","speed=0.313x\n","progress=end\n","video:387078kB audio:0kB subtitle:0kB other streams:0kB global headers:0kB muxing overhead: unknown\n"]}],"source":["!ffmpeg -i \"//content/ConvertMovieStyle/content_movie/sample.mp4\" -progress - -r 60 \"//content/ConvertMovieStyle/diveded_images/%06d.png\""]},{"cell_type":"markdown","metadata":{"id":"kNaId_PetNut"},"source":["#画風変換"]},{"cell_type":"code","execution_count":4,"metadata":{"id":"L8vLWdw8rrQi","executionInfo":{"status":"ok","timestamp":1699785939535,"user_tz":-540,"elapsed":6201,"user":{"displayName":"笠井勇希","userId":"14292053087326487251"}}},"outputs":[],"source":["import os\n","import tensorflow as tf\n","# Load compressed models from tensorflow_hub\n","os.environ['TFHUB_MODEL_LOAD_FORMAT'] = 'COMPRESSED'"]},{"cell_type":"code","execution_count":5,"metadata":{"id":"eLWErwp-r1HY","colab":{"base_uri":"https://localhost:8080/"},"executionInfo":{"status":"ok","timestamp":1699785953332,"user_tz":-540,"elapsed":13805,"user":{"displayName":"笠井勇希","userId":"14292053087326487251"}},"outputId":"0ab9fdf9-f2a2-4417-96c2-93113a7abafc"},"outputs":[{"output_type":"stream","name":"stdout","text":["Requirement already satisfied: tqdm in /usr/local/lib/python3.10/dist-packages (4.66.1)\n"]}],"source":["import numpy as np\n","import PIL.Image\n","\n","!pip install tqdm\n","import tqdm\n","\n","import tensorflow_hub as hub"]},{"cell_type":"code","execution_count":6,"metadata":{"id":"IV53OuxWsVhE","executionInfo":{"status":"ok","timestamp":1699785953334,"user_tz":-540,"elapsed":9,"user":{"displayName":"笠井勇希","userId":"14292053087326487251"}}},"outputs":[],"source":["def tensor_to_image(tensor):\n","  tensor = tensor*255\n","  tensor = np.array(tensor, dtype=np.uint8)\n","  if np.ndim(tensor)>3:\n","    assert tensor.shape[0] == 1\n","    tensor = tensor[0]\n","  return PIL.Image.fromarray(tensor)"]},{"cell_type":"code","execution_count":7,"metadata":{"id":"0NOypJz8sb7h","executionInfo":{"status":"ok","timestamp":1699785953334,"user_tz":-540,"elapsed":8,"user":{"displayName":"笠井勇希","userId":"14292053087326487251"}}},"outputs":[],"source":["def load_img(path_to_img):\n","  max_dim = 512\n","  img = tf.io.read_file(path_to_img)\n","  img = tf.image.decode_image(img, channels=3)\n","  img = tf.image.convert_image_dtype(img, tf.float32)\n","\n","  shape = tf.cast(tf.shape(img)[:-1], tf.float32)\n","  long_dim = max(shape)\n","  scale = max_dim / long_dim\n","\n","  new_shape = tf.cast(shape * scale, tf.int32)\n","\n","  img = tf.image.resize(img, new_shape)\n","  img = img[tf.newaxis, :]\n","  return img"]},{"cell_type":"code","execution_count":8,"metadata":{"id":"Oor-v9yxwwNM","executionInfo":{"status":"ok","timestamp":1699785955193,"user_tz":-540,"elapsed":1866,"user":{"displayName":"笠井勇希","userId":"14292053087326487251"}}},"outputs":[],"source":["content_dir = '//content/ConvertMovieStyle/diveded_images/'\n","img_num = sum(os.path.isfile(os.path.join(content_dir,name)) for name in os.listdir(content_dir))\n","style_path = \"//content/ConvertMovieStyle/style_images/sample1.jpg\"\n","style_image = load_img(style_path)"]},{"cell_type":"code","execution_count":9,"metadata":{"id":"HiuMUfHNssBQ","colab":{"base_uri":"https://localhost:8080/"},"executionInfo":{"status":"ok","timestamp":1699793652538,"user_tz":-540,"elapsed":7697352,"user":{"displayName":"笠井勇希","userId":"14292053087326487251"}},"outputId":"8c6ba477-cc49-4c9f-f625-ae04a5b75b8c"},"outputs":[{"output_type":"stream","name":"stderr","text":["100%|██████████| 900/900 [2:08:17<00:00,  8.55s/it]\n"]}],"source":["for i in tqdm.tqdm(range(1, img_num)):\n","  content_path = content_dir + str(i).zfill(6) + \".png\"\n","\n","  content_image = load_img(content_path)\n","\n","  hub_model = hub.load('https://tfhub.dev/google/magenta/arbitrary-image-stylization-v1-256/2')\n","  stylized_image = hub_model(tf.constant(content_image), tf.constant(style_image))[0]\n","  converted_img = tensor_to_image(stylized_image)\n","  converted_img.save(\"//content/ConvertMovieStyle/converted_images/\" + str(i).zfill(6) + \".png\")"]},{"cell_type":"markdown","metadata":{"id":"h_7AwqYk2pd3"},"source":["#動画合成"]},{"cell_type":"code","execution_count":10,"metadata":{"id":"KwIUQ6p101Zp","colab":{"base_uri":"https://localhost:8080/"},"executionInfo":{"status":"ok","timestamp":1699793679207,"user_tz":-540,"elapsed":26679,"user":{"displayName":"笠井勇希","userId":"14292053087326487251"}},"outputId":"ad40b3e5-4531-4958-a932-fc500d7a028c"},"outputs":[{"output_type":"stream","name":"stdout","text":["ffmpeg version 4.4.2-0ubuntu0.22.04.1 Copyright (c) 2000-2021 the FFmpeg developers\n","  built with gcc 11 (Ubuntu 11.2.0-19ubuntu1)\n","  configuration: --prefix=/usr --extra-version=0ubuntu0.22.04.1 --toolchain=hardened --libdir=/usr/lib/x86_64-linux-gnu --incdir=/usr/include/x86_64-linux-gnu --arch=amd64 --enable-gpl --disable-stripping --enable-gnutls --enable-ladspa --enable-libaom --enable-libass --enable-libbluray --enable-libbs2b --enable-libcaca --enable-libcdio --enable-libcodec2 --enable-libdav1d --enable-libflite --enable-libfontconfig --enable-libfreetype --enable-libfribidi --enable-libgme --enable-libgsm --enable-libjack --enable-libmp3lame --enable-libmysofa --enable-libopenjpeg --enable-libopenmpt --enable-libopus --enable-libpulse --enable-librabbitmq --enable-librubberband --enable-libshine --enable-libsnappy --enable-libsoxr --enable-libspeex --enable-libsrt --enable-libssh --enable-libtheora --enable-libtwolame --enable-libvidstab --enable-libvorbis --enable-libvpx --enable-libwebp --enable-libx265 --enable-libxml2 --enable-libxvid --enable-libzimg --enable-libzmq --enable-libzvbi --enable-lv2 --enable-omx --enable-openal --enable-opencl --enable-opengl --enable-sdl2 --enable-pocketsphinx --enable-librsvg --enable-libmfx --enable-libdc1394 --enable-libdrm --enable-libiec61883 --enable-chromaprint --enable-frei0r --enable-libx264 --enable-shared\n","  libavutil      56. 70.100 / 56. 70.100\n","  libavcodec     58.134.100 / 58.134.100\n","  libavformat    58. 76.100 / 58. 76.100\n","  libavdevice    58. 13.100 / 58. 13.100\n","  libavfilter     7.110.100 /  7.110.100\n","  libswscale      5.  9.100 /  5.  9.100\n","  libswresample   3.  9.100 /  3.  9.100\n","  libpostproc    55.  9.100 / 55.  9.100\n","Input #0, image2, from '//content/ConvertMovieStyle/converted_images/%06d.png':\n","  Duration: 00:00:15.00, start: 0.000000, bitrate: N/A\n","  Stream #0:0: Video: png, rgb24(pc), 512x384, 60 fps, 60 tbr, 60 tbn, 60 tbc\n","Stream mapping:\n","  Stream #0:0 -> #0:0 (png (native) -> h264 (libx264))\n","Press [q] to stop, [?] for help\n","\u001b[1;36m[libx264 @ 0x56289b1237c0] \u001b[0musing cpu capabilities: MMX2 SSE2Fast SSSE3 SSE4.2 AVX FMA3 BMI2 AVX2\n","\u001b[1;36m[libx264 @ 0x56289b1237c0] \u001b[0mprofile High 4:4:4 Predictive, level 3.1, 4:4:4, 8-bit\n","\u001b[1;36m[libx264 @ 0x56289b1237c0] \u001b[0m264 - core 163 r3060 5db6aa6 - H.264/MPEG-4 AVC codec - Copyleft 2003-2021 - http://www.videolan.org/x264.html - options: cabac=1 ref=3 deblock=1:0:0 analyse=0x3:0x113 me=hex subme=7 psy=1 psy_rd=1.00:0.00 mixed_ref=1 me_range=16 chroma_me=1 trellis=1 8x8dct=1 cqm=0 deadzone=21,11 fast_pskip=1 chroma_qp_offset=4 threads=3 lookahead_threads=1 sliced_threads=0 nr=0 decimate=1 interlaced=0 bluray_compat=0 constrained_intra=0 bframes=3 b_pyramid=2 b_adapt=1 b_bias=0 direct=1 weightb=1 open_gop=0 weightp=2 keyint=250 keyint_min=25 scenecut=40 intra_refresh=0 rc_lookahead=40 rc=crf mbtree=1 crf=23.0 qcomp=0.60 qpmin=0 qpmax=69 qpstep=4 ip_ratio=1.40 aq=1:1.00\n","Output #0, mp4, to '//content/ConvertMovieStyle/out/out.mp4':\n","  Metadata:\n","    encoder         : Lavf58.76.100\n","  Stream #0:0: Video: h264 (avc1 / 0x31637661), yuv444p(tv, progressive), 512x384, q=2-31, 60 fps, 15360 tbn\n","    Metadata:\n","      encoder         : Lavc58.134.100 libx264\n","    Side data:\n","      cpb: bitrate max/min/avg: 0/0/0 buffer size: 0 vbv_delay: N/A\n","frame=  900 fps= 35 q=-1.0 Lsize=    6078kB time=00:00:14.95 bitrate=3330.2kbits/s speed=0.584x    \n","video:6066kB audio:0kB subtitle:0kB other streams:0kB global headers:0kB muxing overhead: 0.188402%\n","\u001b[1;36m[libx264 @ 0x56289b1237c0] \u001b[0mframe I:4     Avg QP:28.09  size: 38630\n","\u001b[1;36m[libx264 @ 0x56289b1237c0] \u001b[0mframe P:263   Avg QP:30.11  size: 16969\n","\u001b[1;36m[libx264 @ 0x56289b1237c0] \u001b[0mframe B:633   Avg QP:34.05  size:  2518\n","\u001b[1;36m[libx264 @ 0x56289b1237c0] \u001b[0mconsecutive B-frames:  0.7% 16.0%  2.0% 81.3%\n","\u001b[1;36m[libx264 @ 0x56289b1237c0] \u001b[0mmb I  I16..4:  4.5% 55.7% 39.7%\n","\u001b[1;36m[libx264 @ 0x56289b1237c0] \u001b[0mmb P  I16..4:  0.2%  2.7%  1.7%  P16..4: 29.3% 33.4% 27.7%  0.0%  0.0%    skip: 5.0%\n","\u001b[1;36m[libx264 @ 0x56289b1237c0] \u001b[0mmb B  I16..4:  0.0%  0.0%  0.1%  B16..8: 17.9%  6.3%  3.6%  direct: 5.7%  skip:66.4%  L0:44.6% L1:31.3% BI:24.0%\n","\u001b[1;36m[libx264 @ 0x56289b1237c0] \u001b[0m8x8 transform intra:56.1% inter:46.2%\n","\u001b[1;36m[libx264 @ 0x56289b1237c0] \u001b[0mcoded y,u,v intra: 95.2% 31.2% 29.9% inter: 31.8% 1.6% 1.6%\n","\u001b[1;36m[libx264 @ 0x56289b1237c0] \u001b[0mi16 v,h,dc,p:  3% 91%  0%  6%\n","\u001b[1;36m[libx264 @ 0x56289b1237c0] \u001b[0mi8 v,h,dc,ddl,ddr,vr,hd,vl,hu: 20% 11% 14%  7% 13% 10%  9% 10%  7%\n","\u001b[1;36m[libx264 @ 0x56289b1237c0] \u001b[0mi4 v,h,dc,ddl,ddr,vr,hd,vl,hu: 25% 18% 12%  6% 10%  9%  8%  7%  6%\n","\u001b[1;36m[libx264 @ 0x56289b1237c0] \u001b[0mWeighted P-Frames: Y:0.0% UV:0.0%\n","\u001b[1;36m[libx264 @ 0x56289b1237c0] \u001b[0mref P L0: 53.3% 14.4% 19.7% 12.7%\n","\u001b[1;36m[libx264 @ 0x56289b1237c0] \u001b[0mref B L0: 76.2%  9.2% 14.5%\n","\u001b[1;36m[libx264 @ 0x56289b1237c0] \u001b[0mref B L1: 99.0%  1.0%\n","\u001b[1;36m[libx264 @ 0x56289b1237c0] \u001b[0mkb/s:3312.55\n"]}],"source":["!ffmpeg -framerate 60 -i \"//content/ConvertMovieStyle/converted_images/%06d.png\" \"//content/ConvertMovieStyle/out/out.mp4\" -y"]},{"cell_type":"code","source":["from IPython.display import HTML\n","from base64 import b64encode\n","\n","video_file = open(\"//content/ConvertMovieStyle/out/out.mp4\", \"r+b\").read()\n","\n","video_url = f\"data:video/mp4;base64,{b64encode(video_file).decode()}\"\n","HTML(f\"\"\"<video width={600} controls><source src=\"{video_url}\"></video>\"\"\")\n"],"metadata":{"id":"9lC2bP4UG_Ap","colab":{"base_uri":"https://localhost:8080/","height":472,"output_embedded_package_id":"1VHvfEp8cJmsy0l_tDCquV4ykhavE8VUj"},"executionInfo":{"status":"ok","timestamp":1699793688329,"user_tz":-540,"elapsed":9129,"user":{"displayName":"笠井勇希","userId":"14292053087326487251"}},"outputId":"92357084-30d1-4746-9f6a-e0aed889f558"},"execution_count":11,"outputs":[{"output_type":"display_data","data":{"text/plain":"Output hidden; open in https://colab.research.google.com to view."},"metadata":{}}]}],"metadata":{"accelerator":"GPU","colab":{"provenance":[{"file_id":"1oVjtmVK7AHI5PiMw8NuxZZ2Bhr03bXuC","timestamp":1699772713817}],"gpuType":"T4","mount_file_id":"1oVjtmVK7AHI5PiMw8NuxZZ2Bhr03bXuC","authorship_tag":"ABX9TyNJetxUKSzwKe3e//FKgMYo"},"kernelspec":{"display_name":"Python 3","name":"python3"},"language_info":{"name":"python"}},"nbformat":4,"nbformat_minor":0}